<?xml version="1.0" standalone="no"?>
<!DOCTYPE svg PUBLIC "-//W3C//DTD SVG 20010904//EN"
 "http://www.w3.org/TR/2001/REC-SVG-20010904/DTD/svg10.dtd">
<svg version="1.0" xmlns="http://www.w3.org/2000/svg"
 width="1000.000000pt" height="1000.000000pt" viewBox="0 0 1000.000000 1000.000000"
 preserveAspectRatio="xMidYMid meet">

<g transform="translate(0.000000,1000.000000) scale(0.100000,-0.100000)"
fill="#000000" stroke="none">
<path d="M1460 4950 l0 -3190 3600 0 3600 0 0 3190 0 3190 -3600 0 -3600 0 0
-3190z m2368 2918 l2 -188 50 0 50 0 2 188 3 187 1119 3 c818 1 1122 -1 1132
-9 11 -9 14 -77 14 -349 l0 -338 43 -36 42 -35 5 382 5 382 1130 0 1130 0 3
-1007 2 -1008 -919 0 -918 0 -7 74 c-17 193 -104 420 -215 567 -189 248 -486
422 -845 494 -224 44 -272 47 -1038 52 l-738 5 0 -2141 0 -2141 -25 0 -25 0 0
-550 0 -550 -1135 0 -1135 0 0 1005 0 1005 1035 0 1035 0 0 40 0 40 -1035 0
-1035 0 2 1008 3 1007 1033 3 1032 2 0 40 0 40 -1035 0 -1035 0 0 1005 0 1005
778 3 c427 1 937 2 1132 2 l355 0 3 -187z m1597 -1161 c355 -71 575 -240 660
-509 38 -120 52 -274 37 -411 -40 -352 -236 -600 -567 -714 -161 -55 -257 -65
-698 -70 l-407 -5 2 478 3 479 789 3 c617 2 792 5 798 15 4 6 8 24 8 40 l0 27
-800 0 -800 0 0 346 0 346 448 -5 c353 -4 464 -8 527 -20z m3133 -1760 l2
-1007 -1132 2 -1133 3 -3 477 c-2 420 0 479 13 490 37 31 159 177 199 238 134
202 203 424 222 708 l7 102 911 -2 911 -3 3 -1008z m-2358 -559 c0 -233 -4
-429 -8 -436 -7 -10 -188 -12 -873 -10 l-864 3 -3 276 -2 277 417 5 c424 5
528 12 708 48 193 39 412 128 550 223 28 19 56 35 63 35 9 1 12 -90 12 -421z
m-6 -544 c3 -9 6 -458 6 -998 0 -750 -3 -985 -12 -994 -14 -14 -993 -17 -1791
-5 l-467 6 0 509 0 508 260 0 260 0 0 488 c0 269 3 492 7 495 3 4 394 7 869 7
777 0 862 -2 868 -16z m2364 -991 l-3 -1008 -1130 0 -1130 0 -3 995 c-1 547 0
1001 3 1008 3 9 240 12 1135 12 l1130 0 -2 -1007z"/>
</g>
</svg>
